<mxfile host="app.diagrams.net" modified="2021-06-16T08:19:50.537Z" agent="5.0 (Windows NT 10.0; Win64; x64) AppleWebKit/537.36 (KHTML, like Gecko) Chrome/91.0.4472.77 Safari/537.36" etag="_QB8lQnKRFzLiiFbSAzB" version="14.7.9" type="github">
  <diagram id="UjRWrSYmWmLsp1RYXXkG" name="Page-1">
    <mxGraphModel dx="2889" dy="2291" grid="1" gridSize="10" guides="1" tooltips="1" connect="1" arrows="1" fold="1" page="1" pageScale="1" pageWidth="827" pageHeight="1169" math="0" shadow="0">
      <root>
        <mxCell id="0" />
        <mxCell id="1" parent="0" />
        <mxCell id="MPp4sxlTrNqLZG6eKZOQ-2" value="ISportsPartyMgr&#xa;&lt;interface&gt;" style="swimlane;fontStyle=1;childLayout=stackLayout;horizontal=1;startSize=40;fillColor=none;horizontalStack=0;resizeParent=1;resizeParentMax=0;resizeLast=0;collapsible=1;marginBottom=0;" parent="1" vertex="1">
          <mxGeometry x="-500" y="-74" width="276" height="334" as="geometry" />
        </mxCell>
        <mxCell id="RDaWVOIWa97cIHOVZwn_-25" value="&amp;nbsp;+ GameWorld GameWorld:Get" style="html=1;align=left;" vertex="1" parent="MPp4sxlTrNqLZG6eKZOQ-2">
          <mxGeometry y="40" width="276" height="20" as="geometry" />
        </mxCell>
        <mxCell id="MPp4sxlTrNqLZG6eKZOQ-3" value="+ AddSportsPartyLogic&lt;ISportsPartyLogic&gt;():void" style="text;strokeColor=none;fillColor=none;align=left;verticalAlign=top;spacingLeft=4;spacingRight=4;overflow=hidden;rotatable=0;points=[[0,0.5],[1,0.5]];portConstraint=eastwest;" parent="MPp4sxlTrNqLZG6eKZOQ-2" vertex="1">
          <mxGeometry y="60" width="276" height="20" as="geometry" />
        </mxCell>
        <mxCell id="MPp4sxlTrNqLZG6eKZOQ-11" value="+ RemoveSportsPartyLogic&lt;ISportsPartyLogic&gt;():void" style="text;strokeColor=none;fillColor=none;align=left;verticalAlign=top;spacingLeft=4;spacingRight=4;overflow=hidden;rotatable=0;points=[[0,0.5],[1,0.5]];portConstraint=eastwest;" parent="MPp4sxlTrNqLZG6eKZOQ-2" vertex="1">
          <mxGeometry y="80" width="276" height="20" as="geometry" />
        </mxCell>
        <mxCell id="MPp4sxlTrNqLZG6eKZOQ-4" value="+ GetSportsPartyLogic&lt;ISportsPartyLogic&gt;():void" style="text;strokeColor=none;fillColor=none;align=left;verticalAlign=top;spacingLeft=4;spacingRight=4;overflow=hidden;rotatable=0;points=[[0,0.5],[1,0.5]];portConstraint=eastwest;" parent="MPp4sxlTrNqLZG6eKZOQ-2" vertex="1">
          <mxGeometry y="100" width="276" height="26" as="geometry" />
        </mxCell>
        <mxCell id="MPp4sxlTrNqLZG6eKZOQ-17" value="+ RegisterMessage(int, MsgDelegatel):void" style="text;strokeColor=none;fillColor=none;align=left;verticalAlign=top;spacingLeft=4;spacingRight=4;overflow=hidden;rotatable=0;points=[[0,0.5],[1,0.5]];portConstraint=eastwest;" parent="MPp4sxlTrNqLZG6eKZOQ-2" vertex="1">
          <mxGeometry y="126" width="276" height="26" as="geometry" />
        </mxCell>
        <mxCell id="MPp4sxlTrNqLZG6eKZOQ-19" value="+ UnregisterMessage(int, MsgDelegatel):void" style="text;strokeColor=none;fillColor=none;align=left;verticalAlign=top;spacingLeft=4;spacingRight=4;overflow=hidden;rotatable=0;points=[[0,0.5],[1,0.5]];portConstraint=eastwest;" parent="MPp4sxlTrNqLZG6eKZOQ-2" vertex="1">
          <mxGeometry y="152" width="276" height="26" as="geometry" />
        </mxCell>
        <mxCell id="MPp4sxlTrNqLZG6eKZOQ-20" value="+ DispatchMessage(int):void" style="text;strokeColor=none;fillColor=none;align=left;verticalAlign=top;spacingLeft=4;spacingRight=4;overflow=hidden;rotatable=0;points=[[0,0.5],[1,0.5]];portConstraint=eastwest;" parent="MPp4sxlTrNqLZG6eKZOQ-2" vertex="1">
          <mxGeometry y="178" width="276" height="26" as="geometry" />
        </mxCell>
        <mxCell id="MPp4sxlTrNqLZG6eKZOQ-21" value="+ AddTimer(float,TimerDelegate):int" style="text;strokeColor=none;fillColor=none;align=left;verticalAlign=top;spacingLeft=4;spacingRight=4;overflow=hidden;rotatable=0;points=[[0,0.5],[1,0.5]];portConstraint=eastwest;" parent="MPp4sxlTrNqLZG6eKZOQ-2" vertex="1">
          <mxGeometry y="204" width="276" height="26" as="geometry" />
        </mxCell>
        <mxCell id="MPp4sxlTrNqLZG6eKZOQ-23" value="+ RemoveTimer(int)" style="text;strokeColor=none;fillColor=none;align=left;verticalAlign=top;spacingLeft=4;spacingRight=4;overflow=hidden;rotatable=0;points=[[0,0.5],[1,0.5]];portConstraint=eastwest;" parent="MPp4sxlTrNqLZG6eKZOQ-2" vertex="1">
          <mxGeometry y="230" width="276" height="26" as="geometry" />
        </mxCell>
        <mxCell id="MPp4sxlTrNqLZG6eKZOQ-91" value="+ GetData&lt;IData&gt;(string)" style="text;strokeColor=none;fillColor=none;align=left;verticalAlign=top;spacingLeft=4;spacingRight=4;overflow=hidden;rotatable=0;points=[[0,0.5],[1,0.5]];portConstraint=eastwest;" parent="MPp4sxlTrNqLZG6eKZOQ-2" vertex="1">
          <mxGeometry y="256" width="276" height="26" as="geometry" />
        </mxCell>
        <mxCell id="MPp4sxlTrNqLZG6eKZOQ-92" value="+ SetData&lt;IData&gt;(string)" style="text;strokeColor=none;fillColor=none;align=left;verticalAlign=top;spacingLeft=4;spacingRight=4;overflow=hidden;rotatable=0;points=[[0,0.5],[1,0.5]];portConstraint=eastwest;" parent="MPp4sxlTrNqLZG6eKZOQ-2" vertex="1">
          <mxGeometry y="282" width="276" height="26" as="geometry" />
        </mxCell>
        <mxCell id="RDaWVOIWa97cIHOVZwn_-3" value="+ GetConfig&lt;ScriptableObject&gt;(string)" style="text;strokeColor=none;fillColor=none;align=left;verticalAlign=top;spacingLeft=4;spacingRight=4;overflow=hidden;rotatable=0;points=[[0,0.5],[1,0.5]];portConstraint=eastwest;" vertex="1" parent="MPp4sxlTrNqLZG6eKZOQ-2">
          <mxGeometry y="308" width="276" height="26" as="geometry" />
        </mxCell>
        <mxCell id="MPp4sxlTrNqLZG6eKZOQ-38" style="edgeStyle=orthogonalEdgeStyle;rounded=0;orthogonalLoop=1;jettySize=auto;html=1;exitX=0.5;exitY=0;exitDx=0;exitDy=0;startSize=26;endArrow=block;endFill=0;" parent="1" source="MPp4sxlTrNqLZG6eKZOQ-24" target="MPp4sxlTrNqLZG6eKZOQ-2" edge="1">
          <mxGeometry relative="1" as="geometry" />
        </mxCell>
        <mxCell id="MPp4sxlTrNqLZG6eKZOQ-40" style="edgeStyle=orthogonalEdgeStyle;rounded=0;orthogonalLoop=1;jettySize=auto;html=1;exitX=0.5;exitY=0;exitDx=0;exitDy=0;entryX=0.5;entryY=1;entryDx=0;entryDy=0;startSize=26;endArrow=block;endFill=0;" parent="1" source="MPp4sxlTrNqLZG6eKZOQ-24" target="MPp4sxlTrNqLZG6eKZOQ-39" edge="1">
          <mxGeometry relative="1" as="geometry" />
        </mxCell>
        <mxCell id="MPp4sxlTrNqLZG6eKZOQ-24" value="&lt;span style=&quot;font-weight: 700&quot;&gt;AbsSportsPartyMgr&lt;/span&gt;&lt;br style=&quot;padding: 0px ; margin: 0px ; font-weight: 700&quot;&gt;&lt;span style=&quot;font-weight: 700&quot;&gt;&amp;lt;abstract&amp;gt;&lt;/span&gt;" style="html=1;startSize=26;fillColor=none;" parent="1" vertex="1">
          <mxGeometry x="-250" y="365" width="130" height="42" as="geometry" />
        </mxCell>
        <mxCell id="MPp4sxlTrNqLZG6eKZOQ-33" style="edgeStyle=orthogonalEdgeStyle;rounded=0;orthogonalLoop=1;jettySize=auto;html=1;exitX=0.5;exitY=0;exitDx=0;exitDy=0;entryX=0.5;entryY=1;entryDx=0;entryDy=0;startSize=26;endArrow=block;endFill=0;" parent="1" source="MPp4sxlTrNqLZG6eKZOQ-30" target="MPp4sxlTrNqLZG6eKZOQ-24" edge="1">
          <mxGeometry relative="1" as="geometry" />
        </mxCell>
        <mxCell id="MPp4sxlTrNqLZG6eKZOQ-30" value="&lt;span style=&quot;font-weight: 700&quot;&gt;ClientSportsPartyMgr&lt;/span&gt;&lt;br style=&quot;padding: 0px ; margin: 0px ; font-weight: 700&quot;&gt;" style="html=1;startSize=26;fillColor=none;" parent="1" vertex="1">
          <mxGeometry x="-380" y="520" width="130" height="42" as="geometry" />
        </mxCell>
        <mxCell id="MPp4sxlTrNqLZG6eKZOQ-35" style="edgeStyle=orthogonalEdgeStyle;rounded=0;orthogonalLoop=1;jettySize=auto;html=1;exitX=0.5;exitY=0;exitDx=0;exitDy=0;entryX=0.5;entryY=1;entryDx=0;entryDy=0;startSize=26;endArrow=block;endFill=0;" parent="1" source="MPp4sxlTrNqLZG6eKZOQ-31" target="MPp4sxlTrNqLZG6eKZOQ-24" edge="1">
          <mxGeometry relative="1" as="geometry" />
        </mxCell>
        <mxCell id="MPp4sxlTrNqLZG6eKZOQ-31" value="&lt;span style=&quot;font-weight: 700&quot;&gt;ServerSportsPartyMgr&lt;/span&gt;" style="html=1;startSize=26;fillColor=none;" parent="1" vertex="1">
          <mxGeometry x="-120" y="520" width="130" height="42" as="geometry" />
        </mxCell>
        <mxCell id="MPp4sxlTrNqLZG6eKZOQ-39" value="&lt;b&gt;AbsExtendGameWorldFeature&lt;br&gt;&lt;/b&gt;&lt;span style=&quot;font-weight: 700&quot;&gt;&amp;lt;abstract&amp;gt;&lt;/span&gt;&lt;b&gt;&lt;br&gt;&lt;/b&gt;" style="html=1;startSize=26;fillColor=none;" parent="1" vertex="1">
          <mxGeometry x="-140" y="198" width="240" height="42" as="geometry" />
        </mxCell>
        <mxCell id="MPp4sxlTrNqLZG6eKZOQ-56" style="edgeStyle=orthogonalEdgeStyle;rounded=0;orthogonalLoop=1;jettySize=auto;html=1;entryX=1;entryY=0.5;entryDx=0;entryDy=0;startSize=26;endArrow=diamond;endFill=0;" parent="1" source="MPp4sxlTrNqLZG6eKZOQ-41" target="MPp4sxlTrNqLZG6eKZOQ-24" edge="1">
          <mxGeometry relative="1" as="geometry" />
        </mxCell>
        <mxCell id="MPp4sxlTrNqLZG6eKZOQ-41" value="SportsPartyLogicMgr" style="swimlane;fontStyle=1;childLayout=stackLayout;horizontal=1;startSize=34;fillColor=none;horizontalStack=0;resizeParent=1;resizeParentMax=0;resizeLast=0;collapsible=1;marginBottom=0;" parent="1" vertex="1">
          <mxGeometry x="170" y="291" width="380" height="190" as="geometry" />
        </mxCell>
        <mxCell id="MPp4sxlTrNqLZG6eKZOQ-42" value="+ Init():void" style="text;strokeColor=none;fillColor=none;align=left;verticalAlign=top;spacingLeft=4;spacingRight=4;overflow=hidden;rotatable=0;points=[[0,0.5],[1,0.5]];portConstraint=eastwest;" parent="MPp4sxlTrNqLZG6eKZOQ-41" vertex="1">
          <mxGeometry y="34" width="380" height="26" as="geometry" />
        </mxCell>
        <mxCell id="MPp4sxlTrNqLZG6eKZOQ-43" value="+ Clear():voud" style="text;strokeColor=none;fillColor=none;align=left;verticalAlign=top;spacingLeft=4;spacingRight=4;overflow=hidden;rotatable=0;points=[[0,0.5],[1,0.5]];portConstraint=eastwest;" parent="MPp4sxlTrNqLZG6eKZOQ-41" vertex="1">
          <mxGeometry y="60" width="380" height="26" as="geometry" />
        </mxCell>
        <mxCell id="MPp4sxlTrNqLZG6eKZOQ-44" value="+ OnUpdate(float):void" style="text;strokeColor=none;fillColor=none;align=left;verticalAlign=top;spacingLeft=4;spacingRight=4;overflow=hidden;rotatable=0;points=[[0,0.5],[1,0.5]];portConstraint=eastwest;" parent="MPp4sxlTrNqLZG6eKZOQ-41" vertex="1">
          <mxGeometry y="86" width="380" height="26" as="geometry" />
        </mxCell>
        <mxCell id="MPp4sxlTrNqLZG6eKZOQ-45" value="+ AddSportsPartyLogic&lt;ISportsPartyLogic&gt;(ISportsPartyMgr):void" style="text;strokeColor=none;fillColor=none;align=left;verticalAlign=top;spacingLeft=4;spacingRight=4;overflow=hidden;rotatable=0;points=[[0,0.5],[1,0.5]];portConstraint=eastwest;" parent="MPp4sxlTrNqLZG6eKZOQ-41" vertex="1">
          <mxGeometry y="112" width="380" height="26" as="geometry" />
        </mxCell>
        <mxCell id="MPp4sxlTrNqLZG6eKZOQ-46" value="+ RemoveSportsPartyLogic&lt;ISportsPartyLogic&gt;():void" style="text;strokeColor=none;fillColor=none;align=left;verticalAlign=top;spacingLeft=4;spacingRight=4;overflow=hidden;rotatable=0;points=[[0,0.5],[1,0.5]];portConstraint=eastwest;" parent="MPp4sxlTrNqLZG6eKZOQ-41" vertex="1">
          <mxGeometry y="138" width="380" height="26" as="geometry" />
        </mxCell>
        <mxCell id="MPp4sxlTrNqLZG6eKZOQ-54" value="+ GetSportsPartyLogic&lt;ISportsPartyLogic&gt;():void" style="text;strokeColor=none;fillColor=none;align=left;verticalAlign=top;spacingLeft=4;spacingRight=4;overflow=hidden;rotatable=0;points=[[0,0.5],[1,0.5]];portConstraint=eastwest;" parent="MPp4sxlTrNqLZG6eKZOQ-41" vertex="1">
          <mxGeometry y="164" width="380" height="26" as="geometry" />
        </mxCell>
        <mxCell id="MPp4sxlTrNqLZG6eKZOQ-57" value="ISportsPartyLogic&#xa;&lt;interface&gt;" style="swimlane;fontStyle=1;childLayout=stackLayout;horizontal=1;startSize=40;fillColor=none;horizontalStack=0;resizeParent=1;resizeParentMax=0;resizeLast=0;collapsible=1;marginBottom=0;" parent="1" vertex="1">
          <mxGeometry x="770" y="50" width="276" height="106" as="geometry">
            <mxRectangle x="292" y="610" width="140" height="40" as="alternateBounds" />
          </mxGeometry>
        </mxCell>
        <mxCell id="MPp4sxlTrNqLZG6eKZOQ-58" value="+ Init(ISportsPartMgr):void" style="text;strokeColor=none;fillColor=none;align=left;verticalAlign=top;spacingLeft=4;spacingRight=4;overflow=hidden;rotatable=0;points=[[0,0.5],[1,0.5]];portConstraint=eastwest;" parent="MPp4sxlTrNqLZG6eKZOQ-57" vertex="1">
          <mxGeometry y="40" width="276" height="20" as="geometry" />
        </mxCell>
        <mxCell id="MPp4sxlTrNqLZG6eKZOQ-59" value="+ Clear():void" style="text;strokeColor=none;fillColor=none;align=left;verticalAlign=top;spacingLeft=4;spacingRight=4;overflow=hidden;rotatable=0;points=[[0,0.5],[1,0.5]];portConstraint=eastwest;" parent="MPp4sxlTrNqLZG6eKZOQ-57" vertex="1">
          <mxGeometry y="60" width="276" height="20" as="geometry" />
        </mxCell>
        <mxCell id="MPp4sxlTrNqLZG6eKZOQ-60" value="+ OnUpdate(float):void" style="text;strokeColor=none;fillColor=none;align=left;verticalAlign=top;spacingLeft=4;spacingRight=4;overflow=hidden;rotatable=0;points=[[0,0.5],[1,0.5]];portConstraint=eastwest;" parent="MPp4sxlTrNqLZG6eKZOQ-57" vertex="1">
          <mxGeometry y="80" width="276" height="26" as="geometry" />
        </mxCell>
        <mxCell id="MPp4sxlTrNqLZG6eKZOQ-67" style="edgeStyle=orthogonalEdgeStyle;rounded=0;orthogonalLoop=1;jettySize=auto;html=1;exitX=0.5;exitY=0;exitDx=0;exitDy=0;startSize=26;endArrow=block;endFill=0;" parent="1" source="MPp4sxlTrNqLZG6eKZOQ-66" target="MPp4sxlTrNqLZG6eKZOQ-57" edge="1">
          <mxGeometry relative="1" as="geometry" />
        </mxCell>
        <mxCell id="MPp4sxlTrNqLZG6eKZOQ-66" value="&lt;span style=&quot;font-weight: 700&quot;&gt;AbsSportsPartyLogic&lt;/span&gt;&lt;br style=&quot;padding: 0px ; margin: 0px ; font-weight: 700&quot;&gt;&lt;span style=&quot;font-weight: 700&quot;&gt;&amp;lt;abstract&amp;gt;&lt;/span&gt;" style="html=1;startSize=26;fillColor=none;" parent="1" vertex="1">
          <mxGeometry x="843" y="240" width="130" height="42" as="geometry" />
        </mxCell>
        <mxCell id="MPp4sxlTrNqLZG6eKZOQ-77" style="edgeStyle=orthogonalEdgeStyle;rounded=0;orthogonalLoop=1;jettySize=auto;html=1;exitX=0;exitY=0.5;exitDx=0;exitDy=0;entryX=1;entryY=0.5;entryDx=0;entryDy=0;startSize=26;endArrow=diamond;endFill=0;" parent="1" source="MPp4sxlTrNqLZG6eKZOQ-58" target="MPp4sxlTrNqLZG6eKZOQ-44" edge="1">
          <mxGeometry relative="1" as="geometry" />
        </mxCell>
        <mxCell id="MPp4sxlTrNqLZG6eKZOQ-80" style="edgeStyle=orthogonalEdgeStyle;rounded=0;orthogonalLoop=1;jettySize=auto;html=1;exitX=0.5;exitY=0;exitDx=0;exitDy=0;entryX=0.5;entryY=1;entryDx=0;entryDy=0;startSize=26;endArrow=block;endFill=0;" parent="1" source="MPp4sxlTrNqLZG6eKZOQ-78" target="MPp4sxlTrNqLZG6eKZOQ-66" edge="1">
          <mxGeometry relative="1" as="geometry" />
        </mxCell>
        <mxCell id="MPp4sxlTrNqLZG6eKZOQ-78" value="&lt;span style=&quot;font-weight: 700&quot;&gt;ServerSportsPartyMainLogic&lt;/span&gt;" style="html=1;startSize=26;fillColor=none;" parent="1" vertex="1">
          <mxGeometry x="680" y="415" width="200" height="42" as="geometry" />
        </mxCell>
        <mxCell id="MPp4sxlTrNqLZG6eKZOQ-81" style="edgeStyle=orthogonalEdgeStyle;rounded=0;orthogonalLoop=1;jettySize=auto;html=1;exitX=0.5;exitY=0;exitDx=0;exitDy=0;startSize=26;endArrow=block;endFill=0;" parent="1" source="MPp4sxlTrNqLZG6eKZOQ-79" target="MPp4sxlTrNqLZG6eKZOQ-66" edge="1">
          <mxGeometry relative="1" as="geometry" />
        </mxCell>
        <mxCell id="MPp4sxlTrNqLZG6eKZOQ-79" value="&lt;span style=&quot;font-weight: 700&quot;&gt;ClientSportsPartyMainLogic&lt;/span&gt;" style="html=1;startSize=26;fillColor=none;" parent="1" vertex="1">
          <mxGeometry x="940" y="415" width="200" height="42" as="geometry" />
        </mxCell>
        <mxCell id="MPp4sxlTrNqLZG6eKZOQ-85" style="edgeStyle=orthogonalEdgeStyle;rounded=0;orthogonalLoop=1;jettySize=auto;html=1;exitX=1;exitY=0.5;exitDx=0;exitDy=0;entryX=0;entryY=0.5;entryDx=0;entryDy=0;startSize=26;endArrow=diamond;endFill=0;" parent="1" source="MPp4sxlTrNqLZG6eKZOQ-83" target="MPp4sxlTrNqLZG6eKZOQ-24" edge="1">
          <mxGeometry relative="1" as="geometry" />
        </mxCell>
        <mxCell id="MPp4sxlTrNqLZG6eKZOQ-83" value="&lt;span style=&quot;font-weight: 700&quot;&gt;TimerRegister&lt;/span&gt;" style="html=1;startSize=26;fillColor=none;" parent="1" vertex="1">
          <mxGeometry x="-720" y="260" width="130" height="42" as="geometry" />
        </mxCell>
        <mxCell id="MPp4sxlTrNqLZG6eKZOQ-86" style="edgeStyle=orthogonalEdgeStyle;rounded=0;orthogonalLoop=1;jettySize=auto;html=1;entryX=0;entryY=0.5;entryDx=0;entryDy=0;startSize=26;endArrow=diamond;endFill=0;" parent="1" source="MPp4sxlTrNqLZG6eKZOQ-84" target="MPp4sxlTrNqLZG6eKZOQ-24" edge="1">
          <mxGeometry relative="1" as="geometry" />
        </mxCell>
        <mxCell id="MPp4sxlTrNqLZG6eKZOQ-84" value="&lt;span style=&quot;font-weight: 700&quot;&gt;MsgRegister&lt;/span&gt;" style="html=1;startSize=26;fillColor=none;" parent="1" vertex="1">
          <mxGeometry x="-720" y="330" width="130" height="42" as="geometry" />
        </mxCell>
        <mxCell id="MPp4sxlTrNqLZG6eKZOQ-90" style="edgeStyle=orthogonalEdgeStyle;rounded=0;orthogonalLoop=1;jettySize=auto;html=1;exitX=1;exitY=0.5;exitDx=0;exitDy=0;entryX=0;entryY=0.5;entryDx=0;entryDy=0;startSize=26;endArrow=diamond;endFill=0;" parent="1" source="MPp4sxlTrNqLZG6eKZOQ-89" target="MPp4sxlTrNqLZG6eKZOQ-24" edge="1">
          <mxGeometry relative="1" as="geometry" />
        </mxCell>
        <mxCell id="MPp4sxlTrNqLZG6eKZOQ-89" value="&lt;span style=&quot;font-weight: 700&quot;&gt;DataMgr&lt;/span&gt;" style="html=1;startSize=26;fillColor=none;" parent="1" vertex="1">
          <mxGeometry x="-720" y="408" width="130" height="42" as="geometry" />
        </mxCell>
        <mxCell id="RDaWVOIWa97cIHOVZwn_-2" style="edgeStyle=orthogonalEdgeStyle;rounded=0;orthogonalLoop=1;jettySize=auto;html=1;exitX=1;exitY=0.5;exitDx=0;exitDy=0;entryX=0;entryY=0.5;entryDx=0;entryDy=0;endArrow=diamond;endFill=0;" edge="1" parent="1" source="RDaWVOIWa97cIHOVZwn_-1" target="MPp4sxlTrNqLZG6eKZOQ-24">
          <mxGeometry relative="1" as="geometry" />
        </mxCell>
        <mxCell id="RDaWVOIWa97cIHOVZwn_-1" value="&lt;span style=&quot;font-weight: 700&quot;&gt;ConfigMgr&lt;/span&gt;" style="html=1;startSize=26;fillColor=none;" vertex="1" parent="1">
          <mxGeometry x="-720" y="485" width="130" height="42" as="geometry" />
        </mxCell>
      </root>
    </mxGraphModel>
  </diagram>
</mxfile>
